<?xml version="1.0" encoding="UTF-8"?>
<svg width="160px" height="203px" viewBox="0 0 160 203" version="1.1" xmlns="http://www.w3.org/2000/svg" xmlns:xlink="http://www.w3.org/1999/xlink">
    <title>oban-oss-t-shirt-dark</title>
    <g id="Stickers-+-Shirts" stroke="none" stroke-width="1" fill="none" fill-rule="evenodd">
        <g id="OSS-Logo—Light">
            <g id="Tourmaline-Logo" transform="translate(0.0363, 0.0724)">
                <polygon id="Path" fill="#E3F3FB" points="144.874214 53.121692 136.556692 23.4307901 106.86579 15.1132683 117.99819 41.9892921"></polygon>
                <polygon id="Path" fill="#90BAD2" points="133.741814 79.9977159 117.99819 41.9892921 144.874214 53.121692"></polygon>
                <path d="M136.561295,23.4242087 L144.87886,53.1151105 L153.89909,49.3787878 C149.933708,39.7635176 143.932165,30.7823457 136.565683,23.4398234 L136.561295,23.4242087 Z" id="Path" fill="#458378"></path>
                <path d="M153.89909,49.3787878 C157.898671,58.9854978 160.008431,69.585145 159.992179,79.9911344 L144.87886,53.1151105 L153.89909,49.3787878 Z" id="Path" fill="#163132"></path>
                <polygon id="Path" fill="#ACE6EA" points="144.87886 106.867158 159.992085 79.9911344 144.87886 53.1151105 133.74646 79.9911344"></polygon>
                <polygon id="Path" fill="#6EC9CC" points="118.002836 117.999558 133.74646 79.9911344 144.87886 106.867158"></polygon>
                <path d="M160,79.9897579 L144.886775,106.865782 L153.907005,110.602105 C157.902112,100.999137 160.009033,90.4047376 159.992085,80.0038671 L160,79.9897579 Z" id="Path" fill="#10454F"></path>
                <path d="M153.907005,110.602105 C149.942225,120.223182 143.938918,129.210075 136.569253,136.556684 L144.886775,106.865782 L153.907005,110.602105 Z" id="Path" fill="#39727A"></path>
                <polygon id="Path" fill="#9BC3C8" points="106.878351 144.874249 136.569253 136.556684 144.886775 106.865782 118.010751 117.998182"></polygon>
                <polygon id="Path" fill="#84B4B2" points="80.0023272 133.741806 118.010751 117.998182 106.878351 144.874249"></polygon>
                <path d="M136.575834,136.561329 L106.884932,144.878851 L110.621255,153.899125 C120.236525,149.933742 129.217697,143.932199 136.56022,136.565674 L136.575834,136.561329 Z" id="Path" fill="#23535A"></path>
                <path d="M110.621255,153.899125 C101.014545,157.898705 90.414898,160.008423 80.0089086,159.992171 L106.884932,144.878851 L110.621255,153.899125 Z" id="Path" fill="#0C2629"></path>
                <polygon id="Path" fill="#0F5058" points="53.1328847 144.878894 80.0089086 159.992119 106.884932 144.878894 80.0089086 133.746451"></polygon>
                <polygon id="Path" fill="#356977" points="42.0004849 118.00287 80.0089086 133.746451 53.1328847 144.878894"></polygon>
                <path d="M80.0102851,160.000034 L53.1342612,144.886766 L49.3979385,153.90704 C59.0009061,157.902146 69.5953054,160.009068 79.9961759,159.992076 L80.0102851,160.000034 Z" id="Path" fill="#246179"></path>
                <path d="M49.3979385,153.90704 C39.7768612,149.942216 30.7899681,143.938953 23.4433594,136.569244 L53.1342612,144.886766 L49.3979385,153.90704 Z" id="Path" fill="#0E4643"></path>
                <polygon id="Path" fill="#21806F" points="15.1258375 106.878385 23.4433594 136.569287 53.1342612 144.886809 42.0018614 118.010785"></polygon>
                <polygon id="Path" fill="#59BABC" points="26.2582374 80.0023616 42.0018614 118.010785 15.1258375 106.878385"></polygon>
                <path d="M23.4387136,136.575826 L15.1211918,106.884924 L6.10091833,110.621247 C10.066301,120.23656 16.0678439,129.217689 23.434369,136.560254 L23.4387136,136.575826 Z" id="Path" fill="#0D3638"></path>
                <path d="M6.10091833,110.621247 C2.10133365,101.01458 -0.0083967142,90.4149324 0.00783807016,80.008943 L15.1211918,106.884924 L6.10091833,110.621247 Z" id="Path" fill="#439AA1"></path>
                <polygon id="Path" fill="#467D7C" points="15.1211918 53.1329191 0.00794504669 80.008943 15.1211918 106.884967 26.2535916 80.008943"></polygon>
                <polygon id="Path" fill="#3393AA" points="41.9972157 42.0005193 26.2535916 80.008943 15.1211918 53.1329191"></polygon>
                <path d="M0,80.0102765 L15.1132339,53.1342526 L6.0930034,49.3979729 C2.09788807,59.0009405 -0.00901614394,69.5952968 0.0079321419,79.9961673 L0,80.0102765 Z" id="Path" fill="#94C0CE"></path>
                <path d="M6.0930034,49.3979729 C10.0577839,39.7768956 16.0610904,30.7899595 23.4307987,23.4433938 L15.1132339,53.1342526 L6.0930034,49.3979729 Z" id="Path" fill="#B3D6E2"></path>
                <polygon id="Path" fill="#E7FAFA" points="53.1217006 15.1258289 23.4307987 23.4433938 15.1132339 53.1342526 41.9892577 42.0018528"></polygon>
                <polygon id="Path" fill="#8ACADC" points="79.9977245 26.2582718 41.9892577 42.0018528 53.1217006 15.1258289"></polygon>
                <path d="M23.4242173,23.4387481 L53.1150761,15.1211832 L49.3787964,6.10095274 C39.7634832,10.0662924 30.7823113,16.0678783 23.439789,23.4343604 L23.4242173,23.4387481 Z" id="Path" fill="#A9D8D1"></path>
                <path d="M49.3787964,6.10095274 C58.9854633,2.10137236 69.5851106,-0.00838811101 79.9911,0.00786368345 L53.1150761,15.1211832 L49.3787964,6.10095274 Z" id="Path" fill="#89EDF3"></path>
                <polygon id="Path" fill="#FFFFFF" points="106.867167 15.1211832 79.991143 0.00795795147 53.1151191 15.1211832 79.991143 26.253626"></polygon>
                <polygon id="Path" fill="#DEFDFF" points="117.999567 41.9972071 79.991143 26.253626 106.867167 15.1211832"></polygon>
                <path d="M79.9897665,0 L106.865747,15.1132683 L110.60207,6.09299479 C100.999103,2.09788807 90.4047032,-0.00899033437 80.0038757,0.00795795147 L79.9897665,0 Z" id="Path" fill="#B8EAF1"></path>
                <path d="M110.60207,6.09299479 C120.223147,10.0578183 129.210041,16.0611248 136.556649,23.4307901 L106.865747,15.1132683 L110.60207,6.09299479 Z" id="Path" fill="#9FCFF0"></path>
            </g>
            <g id="oban-copy" transform="translate(39.5, 169.1583)" fill="#0D3638" fill-rule="nonzero">
                <path d="M19.7150754,15.4138759 C19.1976993,14.1451677 18.4769006,13.0181236 17.5733677,12.0681487 C16.6749039,11.1239234 15.6021544,10.3682664 14.3854923,9.82158238 C13.1709321,9.27710303 11.8576278,9 10.481434,9 C9.1031383,9 7.79152371,9.27489831 6.58582409,9.8233548 C5.37843477,10.366494 4.3128561,11.122151 3.41608197,12.0703534 C2.51971996,13.0181236 1.80271278,14.1433953 1.28323494,15.4138759 C0.764169217,16.6839243 0.5,18.0619607 0.5,19.5095106 C0.5,20.9530833 0.762479523,22.3271426 1.28323494,23.5976232 C1.80271278,24.8623543 2.51971996,25.9836488 3.41608197,26.931419 C4.31623549,27.8813939 5.38181415,28.6374831 6.58582409,29.1762129 C7.79321341,29.722897 9.1031383,30 10.481434,30 C11.8576278,30 13.1709321,29.7246694 14.3854923,29.1784176 C15.5949835,28.6352784 16.667733,27.8813939 17.5733677,26.931419 C18.475211,25.9871937 19.1955975,24.8641267 19.7167651,23.5976232 C20.2362429,22.3253701 20.5,20.9513109 20.5,19.5095106 C20.4983103,18.0637331 20.2341411,16.686129 19.7150754,15.4138759 Z M17.1690776,22.4364275 C16.7846104,23.3465445 16.2596101,24.15706 15.609284,24.8449759 C14.9623373,25.5293469 14.187963,26.0778033 13.3076325,26.4753446 C12.4306813,26.869341 11.4908818,27.0672038 10.5151866,27.0672038 C9.52345996,27.0672038 8.58028107,26.869341 7.71433355,26.4753446 C6.84455331,26.0813482 6.07186866,25.5328917 5.42154257,24.8432035 C4.77121648,24.1552876 4.24621622,23.3447721 3.86174904,22.4364275 C3.48276306,21.5315845 3.28865432,20.5457721 3.28865432,19.5094673 C3.28865432,18.4709578 3.48107337,17.481125 3.86170783,16.5634428 C4.24279562,15.6453283 4.76734254,14.8312679 5.41977045,14.1451245 C6.06630503,13.4665031 6.83729999,12.9180466 7.71425113,12.5129834 C8.58357803,12.1154421 9.52721025,11.9136022 10.5134557,11.9136022 C11.4891509,11.9136022 12.427302,12.1154421 13.3037998,12.5129834 C14.1862321,12.9202513 14.9606064,13.4687078 15.6075531,14.1451245 C16.2595689,14.8312679 16.7824262,15.6453283 17.1652036,16.5634428 C17.5462914,17.481125 17.7404436,18.4745027 17.7404436,19.5094673 C17.7437796,20.5439997 17.549712,21.525835 17.1690776,22.4364275 Z" id="Shape"></path>
                <path d="M40.7738835,15.6984836 C40.2909247,14.456999 39.6176358,13.3563144 38.7724789,12.4255403 C37.9273221,11.4951907 36.9231791,10.7512589 35.7871141,10.2128833 C34.6489092,9.67450775 33.4105878,9.40249802 32.107816,9.40249802 C31.1951876,9.40249802 30.3405898,9.52458413 29.5667649,9.7687988 C28.7985206,10.0130135 28.1016082,10.3515192 27.4979307,10.7825761 C26.9819075,11.147137 26.5118305,11.5725501 26.101924,12.0444721 L25.4599791,12.78276 L25.4599791,0 L22.5,0 L22.5,29.6871252 L25.4599791,29.6871252 L25.4599791,27.248925 L26.0748179,27.8277413 C26.3308993,28.0702161 26.6234859,28.3053072 26.9508992,28.5330146 C27.5343939,28.9397561 28.2532513,29.2895496 29.0893868,29.574587 C29.9328233,29.8574601 30.9481276,30 32.1060957,30 C33.4088675,30 34.6454684,29.7279903 35.7871141,29.186135 C36.9175565,28.652979 37.9216995,27.9129512 38.7707166,26.9878211 C39.6141531,26.0683348 40.2891624,24.9715543 40.7755619,23.7244257 C41.2568003,22.4812012 41.5,21.1284938 41.5,19.7023311 C41.4982796,18.2870318 41.2551219,16.9399683 40.7738835,15.6984836 Z M38.0170744,22.5959036 C37.6711987,23.4932387 37.1899603,24.2884322 36.5884228,24.9584842 C35.9920464,25.622468 35.2839307,26.1556241 34.4843004,26.5419118 C33.694153,26.9229801 32.8434155,27.1193703 31.9526902,27.1193703 C31.0615453,27.1193703 30.2090874,26.9251443 29.4206604,26.5418694 C28.6210301,26.1573215 27.9077953,25.6224256 27.3019779,24.9567019 C26.69658,24.2905539 26.2101806,23.4949361 25.8552835,22.593697 C25.5038272,21.6963619 25.3229379,20.7269294 25.3229379,19.718796 C25.3229379,18.7106626 25.5021068,17.7429699 25.8552835,16.8417308 C26.2101806,15.9426559 26.69658,15.147038 27.3019779,14.4830542 C27.9077953,13.8151663 28.6193097,13.2802705 29.41894,12.8957225 C30.2090874,12.5141875 31.0598249,12.3182217 31.9505502,12.3182217 C32.8399748,12.3182217 33.6924326,12.5124477 34.4808596,12.8957225 C35.2822103,13.2820103 35.9920044,13.8169062 36.5862409,14.48089 C37.188198,15.1487779 37.667716,15.9426559 38.0153121,16.8417308 C38.3607681,17.7390659 38.5382167,18.7084984 38.5382167,19.718796 C38.5382167,20.7290936 38.3646704,21.6964043 38.0170744,22.5959036 Z" id="Shape"></path>
                <path d="M60.6917254,9.04872009 L60.6716835,12.2434954 L60.0465947,11.5387618 C59.6506329,11.0903381 59.1894205,10.6888189 58.6787077,10.3475189 C58.0429521,9.92166126 57.3201541,9.58788328 56.5316472,9.35236684 C55.7448486,9.11685039 54.9072996,9 54.0373337,9 C52.6784051,9 51.4031022,9.2771036 50.2442587,9.82556122 C49.0849986,10.3718141 48.067823,11.1354269 47.2196072,12.0889486 C46.3730998,13.0424703 45.7006772,14.1699491 45.2210897,15.4422047 C44.7415021,16.7162328 44.5,18.0902949 44.5,19.5298502 C44.5,20.9738583 44.7453355,22.3439432 45.2321731,23.605132 C45.7173023,24.8734105 46.3910166,25.9911626 47.239649,26.9296403 C48.0895732,27.8738675 49.1071654,28.6299583 50.2643006,29.1744388 C51.4231441,29.721124 52.6929052,30 54.039042,30 C54.8966329,30 55.7175567,29.8888992 56.4825634,29.6701992 C57.2509869,29.4497267 57.9614097,29.1292203 58.5915819,28.7144295 C59.0929197,28.3846287 59.6142992,27.9344326 59.9850942,27.5028254 L60.6191414,26.7675282 L60.6191414,27.7533426 C60.6191414,28.2566682 60.6191414,29.5550347 63.5,29.6568411 L63.5,12.3319006 C63.4982917,10.6453296 62.2704059,9.24481087 60.6917254,9.04872009 Z M60.1066786,22.4930863 C59.7832591,23.3974556 59.3254217,24.196906 58.746,24.8697792 C58.1699949,25.5351305 57.4724055,26.0663394 56.6693984,26.4510421 C55.8719331,26.833497 54.9853003,27.0295878 54.0372503,27.0295878 C53.0797836,27.0295878 52.1841924,26.8317246 51.3756436,26.4412722 C50.5692199,26.0495229 49.8605054,25.5103597 49.2704168,24.8374865 C48.6799117,24.1628408 48.2131159,23.361618 47.8824463,22.4532716 C47.5500684,21.5449251 47.3811086,20.5591107 47.3811086,19.528121 C47.3811086,18.4971314 47.5500684,17.5095445 47.8841547,16.5918604 C48.2165326,15.6755164 48.6799117,14.8654315 49.2648751,14.1868087 C49.8481302,13.5099583 50.5529698,12.9637054 51.3611019,12.565731 C52.1679423,12.1699614 53.0690752,11.9703258 54.038917,11.9703258 C54.9963837,11.9703258 55.8864332,12.1699614 56.6860236,12.5639586 C57.4851972,12.9637054 58.184495,13.512163 58.7622084,14.1961031 C59.3399218,14.8840204 59.7960508,15.69631 60.115637,16.6104493 C60.4373481,17.5245885 60.6007662,18.5144233 60.6007662,19.5507303 C60.5990579,20.5949915 60.4335148,21.5842643 60.1066786,22.4930863 Z" id="Shape"></path>
                <path d="M83.8831318,13.3150564 C83.4756737,12.262656 82.898295,11.3329084 82.1672459,10.5483256 C81.4379548,9.7695791 80.5633542,9.14227263 79.5649255,8.68707501 C78.5629809,8.23143857 77.46928,8 76.3123788,8 C75.6169174,8 74.9328613,8.09167144 74.2804053,8.27725234 C73.6354099,8.45743565 73.0185417,8.7153795 72.4464368,9.04476477 C71.9437066,9.33728837 71.4743345,9.68734249 71.0519553,10.0836931 L70.4254398,10.6728214 L70.4254398,8.04809569 L67.5,8.04809569 L67.5,29 L70.4254398,29 L70.4254398,16.4682204 C70.436845,15.6953104 70.5900866,14.9929641 70.893054,14.3193611 C71.1920337,13.6497954 71.5994918,13.0624663 72.1061667,12.5690467 C72.6110836,12.0751882 73.2051414,11.6828748 73.8747052,11.4015852 C74.5398956,11.1202956 75.2559807,10.9769301 75.9980062,10.9769301 C76.8357328,10.9769301 77.5948661,11.1261321 78.2565406,11.4168565 C78.9182151,11.7080636 79.4938358,12.1133663 79.9689106,12.6242953 C80.4457432,13.1388226 80.826832,13.7472594 81.0999142,14.4325352 C81.3725677,15.1173722 81.5429171,15.8732118 81.593426,16.6384862 L81.593426,28.9559415 L84.5,28.9384323 L84.5,16.7014143 C84.4982421,15.5056484 84.2927765,14.3652188 83.8831318,13.3150564 Z" id="Path"></path>
            </g>
        </g>
    </g>
</svg>